G04 ===== Begin FILE IDENTIFICATION =====*
G04 File Format:  Gerber RS274X*
G04 ===== End FILE IDENTIFICATION =====*
%FSLAX24Y24*%
%MOIN*%
%SFA1.0000B1.0000*%
%OFA0.0B0.0*%
%ADD14C,0.027559*%
%LNcond2*%
%IPPOS*%
%LPD*%
G75*
D14*
X2047Y4803D03*
Y5354D03*
Y6102D03*
X2756D03*
X3465Y6142D03*
X4213D03*
X4961D03*
X5787D03*
X6654D03*
X7402D03*
X8189D03*
X9055D03*
X9764D03*
X10591D03*
X10984Y5630D03*
Y5000D03*
Y3110D03*
Y2441D03*
Y1811D03*
Y1260D03*
X9921Y1457D03*
X10315D03*
X9528D03*
X7520Y2520D03*
X7953D03*
X7126D03*
X2638Y1772D03*
X3031D03*
X2244D03*
X3937Y1929D03*
X4370D03*
X3465D03*
X3189Y2362D03*
X2047Y3228D03*
Y2520D03*
Y1299D03*
X2598D03*
X3228D03*
X3976D03*
X4685D03*
X5551D03*
X6339D03*
X7165D03*
X7992D03*
X8858D03*
X2598Y4685D03*
X3228D03*
X3898Y4567D03*
X4488D03*
X4213Y5079D03*
Y5591D03*
X9764Y5512D03*
Y4803D03*
X10394Y4764D03*
X8189Y2992D03*
X8268Y3425D03*
X8661Y3937D03*
X9094Y3622D03*
X9409Y3189D03*
Y2362D03*
X10433Y3307D03*
X10354Y2638D03*
X10394Y2008D03*
X4606Y2402D03*
X5000Y2795D03*
X5354Y3425D03*
X5984Y3543D03*
X6496Y3150D03*
G36*
G01X1772Y984D02*
G01X11339D01*
G01Y6417D01*
G01X1772D01*
G01Y984D01*
G37*
M02*

