;           Gerber:: Drill Report             
;           =====================             
;    Unit                   : inch
;    Format                 : 2.4, Leading Zeros Suppressed
;    Co-ordinate data Mode  : Absolute Data mode
;+----------------------------------------+
;|  D R I L L   T O O L S   T A B L E     |
;+----------------------------------------+
;|    Drill    |    Tool    |    Drill    |
;|    Tool     |    Size    |    Count    |
;+----------------------------------------+
;|          T01|    0.019685|           68|
;+----------------------------------------+

M48
INCH,LZ,00.0000
T01C0.019685
%
M72
G90
T01
X002047Y004803
Y005354
Y006102
X002756
X003465Y006142
X004213
X004961
X005787
X006654
X007402
X008189
X009055
X009764
X010591
X010984Y00563
Y005
Y00311
Y002441
Y001811
Y00126
X009921Y001457
X010315
X009528
X00752Y00252
X007953
X007126
X002638Y001772
X003031
X002244
X003937Y001929
X00437
X003465
X003189Y002362
X002047Y003228
Y00252
Y001299
X002598
X003228
X003976
X004685
X005551
X006339
X007165
X007992
X008858
X002598Y004685
X003228
X003898Y004567
X004488
X004213Y005079
Y005591
X009764Y005512
Y004803
X010394Y004764
X008189Y002992
X008268Y003425
X008661Y003937
X009094Y003622
X009409Y003189
Y002362
X010433Y003307
X010354Y002638
X010394Y002008
X004606Y002402
X005Y002795
X005354Y003425
X005984Y003543
X006496Y00315

M30
